:version 1.10
:name ASF
:units
  mass 1
  length 1
  angle deg
:documentation
  ASF file generated by Kaydara
:root
  axis xyz
  order  tx ty tz rx ry rz
  position 0 0 0
  orientation 0 0 0
:bonedata
  begin
    id 1
    name abdomenDummy
    direction 1 -1.27917e-005 -1.26829e-007
    length 1.79048
    axis 0 0 0 xyz
  end
  begin
    id 2
    name abdomen
    direction 0.987238 0.159249 -9.68575e-008
    length 8.61378
    axis 2.73208e-005 5.54953e-006 9.16328 xyz
    dof rx ry rz
  end
  begin
    id 3
    name chest
    direction 0 0 0
    length 0
    axis 2.65071e-005 8.63688e-006 2.59796 xyz
    dof rx ry rz
  end
  begin
    id 4
    name neckDummyDummy
    direction 0.998972 0.0453274 -1.50742e-007
    length 9.56202
    axis 2.65071e-005 8.63688e-006 2.59796 xyz
  end
  begin
    id 5
    name neckDummy
    direction 0.99977 0.0214525 -1.61748e-007
    length 1.93574
    axis 2.62932e-005 9.26758e-006 1.22924 xyz
    dof rx ry rz
  end
  begin
    id 6
    name neck
    direction 0.99928 -0.0379406 -1.88707e-007
    length 3.70367
    axis 2.56966e-005 1.08122e-005 -2.17436 xyz
    dof rx ry rz
  end
  begin
    id 7
    name head
    direction 0.992648 -0.121037 -2.25408e-007
    length 6.35158
    axis 2.47068e-005 1.29149e-005 -6.95196 xyz
    dof rx ry rz
  end
  begin
    id 8
    name figureHair
    direction -0.86681 -0.498639 -7.83376e-008
    length 8.29884
    axis -2.7515e-005 4.48842e-006 -150.09 xyz
    dof rx ry rz
  end
  begin
    id 9
    name lCollarDummy
    direction 0.994611 0.0451299 -0.0933417
    length 9.60395
    axis 2.65071e-005 8.63688e-006 2.59796 xyz
  end
  begin
    id 10
    name lCollar
    direction 0.0384146 0.00127577 -0.999261
    length 6.95318
    axis 90.4899 87.7973 1.90202 xyz
    dof rx ry rz
  end
  begin
    id 11
    name lShldr
    direction -0.030648 0.0920515 -0.995282
    length 9.61158
    axis -161.793 84.4324 108.415 xyz
    dof rx ry rz
  end
  begin
    id 12
    name lForeArm
    direction 0.000163956 -0.0977586 -0.99521
    length 8.6068
    axis 0.134773 84.3899 -89.8525 xyz
    dof rx ry rz
  end
  begin
    id 13
    name lHand
    direction -0.0190533 -0.1444 -0.989336
    length 7.61479
    axis -7.3729 81.6249 -97.517 xyz
    dof rx ry rz
  end
  begin
    id 14
    name rCollarDummy
    direction 0.994871 0.0442627 0.0909555
    length 9.60761
    axis 2.65071e-005 8.63688e-006 2.59796 xyz
  end
  begin
    id 15
    name rCollar
    direction 0.0334251 -4.74072e-007 0.999441
    length 6.97058
    axis -178.152 -88.0845 -0.000674207 xyz
    dof rx ry rz
  end
  begin
    id 16
    name rShldr
    direction -0.026922 0.0719509 0.997045
    length 9.60913
    axis 71.2822 -85.594 110.514 xyz
    dof rx ry rz
  end
  begin
    id 17
    name rForeArm
    direction 0.00134679 -0.118986 0.992895
    length 8.57176
    axis -88.7923 -83.1659 -89.3516 xyz
    dof rx ry rz
  end
  begin
    id 18
    name rHand
    direction -0.0185183 -0.0768601 0.99687
    length 7.69687
    axis -74.5596 -85.4655 -103.546 xyz
    dof rx ry rz
  end
  begin
    id 19
    name lThighDummy
    direction -0.236086 -0.0385456 -0.970967
    length 4.99155
    axis 0 0 0 xyz
  end
  begin
    id 20
    name lThigh
    direction -0.993968 0.0148998 -0.108653
    length 13.572
    axis -91.4001 6.23768 179.141 xyz
    dof rx ry rz
  end
  begin
    id 21
    name lShin
    direction -0.992341 0.0904576 -0.0841193
    length 18.5862
    axis -91.4558 4.82538 174.792 xyz
    dof rx ry rz
  end
  begin
    id 22
    name lFoot
    direction 0.0209381 -0.999771 -0.00453005
    length 8.44474
    axis 4.86759 0.259522 -88.8001 xyz
    dof rx ry rz
  end
  begin
    id 23
    name rThighDummy
    direction -0.236086 -0.0385456 0.970967
    length 4.99155
    axis 0 0 0 xyz
  end
  begin
    id 24
    name rThigh
    direction -0.993968 0.0148995 0.108653
    length 13.5721
    axis -89.7059 -6.2377 179.141 xyz
    dof rx ry rz
  end
  begin
    id 25
    name rShin
    direction -0.9925 0.0899962 0.0827255
    length 18.6716
    axis -89.2745 -4.74775 174.819 xyz
    dof rx ry rz
  end
  begin
    id 26
    name rFoot
    direction 0.0301721 -0.999545 9.70865e-005
    length 8.45013
    axis -2.50066e-005 -0.00555246 -88.271 xyz
    dof rx ry rz
  end
:hierarchy
  begin
    root abdomenDummy lThighDummy rThighDummy
    abdomenDummy abdomen
    abdomen chest
    chest neckDummyDummy lCollarDummy rCollarDummy
    neckDummyDummy neckDummy
    neckDummy neck
    neck head
    head figureHair
    lCollarDummy lCollar
    lCollar lShldr
    lShldr lForeArm
    lForeArm lHand
    rCollarDummy rCollar
    rCollar rShldr
    rShldr rForeArm
    rForeArm rHand
    lThighDummy lThigh
    lThigh lShin
    lShin lFoot
    rThighDummy rThigh
    rThigh rShin
    rShin rFoot
  end

:SAMPLES-PER-SECOND 25
:FULLY-SPECIFIED
:DEGREES
111
root  -47.2563 36.0183 17.6034 -144.173 1.19287 84.4942
abdomen  -1.49412 -10.6215 -10.5047
chest  -1.61769 0.36255 -10.6953
neckDummy  3.03321e-021 0 6.73878e-016
neck  1.346 -1.89648 28.2808
head  1.89966 6.72872 -12.3736
figureHair  0 0 -1.04948e-014
lCollar  -3.38943e-016 -6.49156e-016 -7.51406e-014
lShldr  13.3527 23.3313 -77.9307
lForeArm  31.4989 -8.47891 -4.99597
lHand  0.254698 0.195082 5.2986
rCollar  2.67893e-016 -5.20816e-014 1.63997e-015
rShldr  -44.0043 34.3895 -72.6699
rForeArm  31.06 -0.904145 3.78304
rHand  0.129503 -22.4002 3.89893
lThigh  -8.58968 -19.8038 -1.96791
lShin  -2.21818 67.2946 4.65067
lFoot  4.00313 -0.101478 -11.6355
rThigh  16.9329 -20.9064 0.340252
rShin  4.68251 21.5655 5.21085
rFoot  -11.2002 -0.203575 -8.56305
112
root  -48.1985 36.4929 18.0006 -144.902 1.77634 85.8328
abdomen  -0.906647 -8.90727 -10.7682
chest  -1.07408 -0.368377 -10.307
neckDummy  3.03321e-021 0 6.73878e-016
neck  1.29801 0.97438 30.249
head  0.537356 2.04838 -13.0728
figureHair  0 0 -1.04948e-014
lCollar  -3.38943e-016 -6.49156e-016 -7.51406e-014
lShldr  17.077 15.5565 -77.8108
lForeArm  29.1555 -11.5517 -3.85506
lHand  0.254698 0.195082 5.2986
rCollar  2.67893e-016 -5.20816e-014 1.63997e-015
rShldr  -42.0548 41.9584 -66.6465
rForeArm  24.0705 -0.0850575 4.36834
rHand  0.473692 -20.491 2.10099
lThigh  -10.8819 -25.4833 -2.17879
lShin  -6.29151 66.9004 4.65931
lFoot  7.23034 -0.321661 -8.08984
rThigh  13.2737 -18.1984 0.108228
rShin  7.12552 18.2037 6.43356
rFoot  -10.2951 -0.135262 -8.01914
113
root  -49.1023 36.8364 18.386 -145.59 2.46114 87.0237
abdomen  -0.884887 -6.23844 -10.1091
chest  -1.0838 -1.56667 -10.6685
neckDummy  3.03321e-021 0 6.73878e-016
neck  1.43589 5.22788 29.2769
head  -1.27695 -4.74838 -11.7022
figureHair  0 0 -1.04948e-014
lCollar  -3.38943e-016 -6.49156e-016 -7.51406e-014
lShldr  20.0148 7.12111 -77.8407
lForeArm  27.4738 -14.353 -2.42176
lHand  0.254698 0.195082 5.2986
rCollar  2.67893e-016 -5.20816e-014 1.63997e-015
rShldr  -36.229 51.1488 -54.917
rForeArm  17.0858 1.09097 5.05477
rHand  0.411975 -19.3648 2.25292
lThigh  -11.3877 -28.3495 -3.28718
lShin  -5.62591 60.2042 3.81255
lFoot  6.01342 -0.356301 -6.44221
rThigh  11.4651 -16.0448 -0.308454
rShin  7.83302 16.0589 6.61734
rFoot  -9.94159 -0.00499535 -7.24876
114
root  -49.9401 37.0094 18.7806 -146.608 2.83933 87.5254
abdomen  -1.12544 -4.56463 -9.50282
chest  -1.32353 -2.00509 -10.7688
neckDummy  3.03321e-021 0 6.73878e-016
neck  1.35306 7.61184 26.9705
head  -2.43633 -8.74606 -9.86476
figureHair  0 0 -1.04948e-014
lCollar  -3.38943e-016 -6.49156e-016 -7.51406e-014
lShldr  20.9435 -1.86166 -77.3597
lForeArm  27.0994 -15.3499 -1.90456
lHand  0.254698 0.195082 5.2986
rCollar  2.67893e-016 -5.20816e-014 1.63997e-015
rShldr  -23.0391 60.0095 -34.969
rForeArm  7.91934 2.28856 5.93011
rHand  0.470964 -15.8307 1.32498
lThigh  -10.8337 -28.8046 -4.27313
lShin  -2.71929 49.3058 2.97519
lFoot  3.72586 -0.21732 -4.77123
rThigh  11.4763 -14.3837 -0.387219
rShin  6.59838 15.3879 6.33475
rFoot  -9.78656 0.167728 -6.24266
115
root  -50.6834 37.0297 19.2035 -148.286 2.98279 87.1379
abdomen  -1.17923 -4.45678 -9.22361
chest  -1.32599 -1.77227 -11.1587
neckDummy  3.03321e-021 0 6.73878e-016
neck  1.26543 9.0007 25.7909
head  -3.15185 -9.90111 -9.30347
figureHair  0 0 -1.04948e-014
lCollar  -3.38943e-016 -6.49156e-016 -7.51406e-014
lShldr  21.3249 -12.0326 -76.7067
lForeArm  27.5156 -14.7868 -2.29491
lHand  0.254698 0.195082 5.2986
rCollar  2.67893e-016 -5.20816e-014 1.63997e-015
rShldr  1.00697 65.3603 -3.73859
rForeArm  -0.928186 3.20891 7.50792
rHand  0.497032 -11.9805 0.182806
lThigh  -8.99347 -27.013 -4.95809
lShin  0.734676 35.8564 2.36856
lFoot  2.35107 -0.108578 -3.55622
rThigh  11.3673 -13.0635 0.0736207
rShin  5.03709 16.0045 5.95032
rFoot  -9.58136 0.358097 -4.53984
116
root  -51.3804 36.9588 19.661 -150.602 3.15774 85.8314
abdomen  -0.895612 -5.21128 -9.22112
chest  -0.991017 -1.47926 -12.3296
neckDummy  3.03321e-021 0 6.73878e-016
neck  1.01921 11.7585 25.0885
head  -4.69278 -11.915 -8.78847
figureHair  0 0 -1.04948e-014
lCollar  -3.38943e-016 -6.49156e-016 -7.51406e-014
lShldr  21.9894 -22.9331 -76.1016
lForeArm  27.9783 -13.6016 -3.19805
lHand  0.254698 0.195082 5.2986
rCollar  2.67893e-016 -5.20816e-014 1.63997e-015
rShldr  29.5807 62.6954 33.7507
rForeArm  -5.81474 4.28071 8.33638
rHand  0.416892 -10.683 0.383437
lThigh  -4.55654 -23.2143 -5.54023
lShin  3.9125 22.3399 1.88698
lFoot  1.89862 -0.359694 -4.73175
rThigh  11.2738 -11.7335 0.732458
rShin  2.90595 17.8005 5.39419
rFoot  -9.68823 0.687542 -2.83444
117
root  -52.0642 36.8898 20.1349 -153.578 3.26149 84.1322
abdomen  -0.336427 -6.43319 -9.38094
chest  -0.334076 -0.864086 -13.2734
neckDummy  3.03321e-021 0 6.73878e-016
neck  0.164099 14.4716 23.2862
head  -6.63597 -14.3327 -8.13929
figureHair  0 0 -1.04948e-014
lCollar  -3.38943e-016 -6.49156e-016 -7.51406e-014
lShldr  22.2168 -32.78 -75.6331
lForeArm  28.7942 -12.4375 -4.15489
lHand  0.254698 0.195082 5.2986
rCollar  2.67893e-016 -5.20816e-014 1.63997e-015
rShldr  46.1202 52.6989 59.7973
rForeArm  -9.10105 6.11572 7.16288
rHand  0.400216 -10.762 0.557014
lThigh  0.210417 -19.1131 -5.2114
lShin  5.74954 12.2568 1.43136
lFoot  1.81252 -0.230468 -6.72543
rThigh  11.0604 -10.2299 1.47571
rShin  0.0902086 19.6631 4.65961
rFoot  -9.79912 0.931211 -1.55057
118
root  -52.6997 36.8243 20.6048 -156.163 2.79288 82.9833
abdomen  0.149643 -7.72399 -9.26444
chest  0.273662 -0.150323 -13.1237
neckDummy  3.03321e-021 0 6.73878e-016
neck  -1.47739 15.7159 20.4972
head  -8.36744 -15.7828 -8.04804
figureHair  0 0 -1.04948e-014
lCollar  -3.38943e-016 -6.49156e-016 -7.51406e-014
lShldr  22.3428 -40.5411 -75.5768
lForeArm  30.1528 -12.1934 -4.3563
lHand  0.254698 0.195082 5.2986
rCollar  2.67893e-016 -5.20816e-014 1.63997e-015
rShldr  52.2007 41.9168 74.8189
rForeArm  -13.7234 7.71799 6.49204
rHand  0.480626 -10.243 -0.366461
lThigh  0.18808 -17.1297 -4.06953
lShin  9.71501 7.73013 1.66931
lFoot  -0.251602 0.19559 -9.8607
rThigh  10.6639 -9.13976 2.32366
rShin  -2.38646 20.999 3.82406
rFoot  -9.54817 1.12093 -0.277307
119
root  -53.2849 36.7177 21.087 -157.911 1.96438 82.2695
abdomen  0.368829 -8.90853 -8.91083
chest  0.608871 0.346325 -12.4012
neckDummy  3.03321e-021 0 6.73878e-016
neck  -3.91801 16.286 17.7931
head  -10.4646 -17.287 -8.2976
figureHair  0 0 -1.04948e-014
lCollar  -3.38943e-016 -6.49156e-016 -7.51406e-014
lShldr  24.6099 -46.1921 -75.8959
lForeArm  29.6671 -14.1718 -2.96998
lHand  0.254698 0.195082 5.2986
rCollar  2.67893e-016 -5.20816e-014 1.63997e-015
rShldr  50.8325 33.5121 84.6288
rForeArm  -12.9734 7.04709 9.20703
rHand  0.605337 -10.6883 -1.29943
lThigh  -0.2561 -16.7104 -3.09974
lShin  14.6001 7.22452 2.00689
lFoot  -3.44293 0.0210652 -13.181
rThigh  10.2458 -8.70304 3.30244
rShin  -3.87883 22.4366 2.93668
rFoot  -9.34018 1.32095 1.072
120
root  -53.8689 36.6433 21.5961 -159.786 1.29976 81.4123
abdomen  0.742485 -9.93439 -8.77069
chest  1.16756 0.978389 -12.1491
neckDummy  3.03321e-021 0 6.73878e-016
neck  -6.91501 16.6963 15.5153
head  -13.0465 -19.3963 -8.61373
figureHair  0 0 -1.04948e-014
lCollar  -3.38943e-016 -6.49156e-016 -7.51406e-014
lShldr  27.4172 -49.4343 -76.3992
lForeArm  27.9616 -19.0348 -0.696067
lHand  0.254698 0.195082 5.2986
rCollar  2.67893e-016 -5.20816e-014 1.63997e-015
rShldr  42.2621 27.348 90.9504
rForeArm  -2.52219 3.34833 15.0558
rHand  0.645886 -13.3702 -0.536966
lThigh  -0.0410359 -15.2274 -2.8382
lShin  18.8494 7.50056 2.77184
lFoot  -3.61385 -0.0733045 -15.3822
rThigh  9.46727 -7.94656 4.36749
rShin  -5.40758 23.6759 1.63661
rFoot  -9.24053 1.47615 2.07486
